<svg width="200" height="408" viewBox="0 0 200 408" fill="none" xmlns="http://www.w3.org/2000/svg">
<g opacity="0.3">
<line x1="105.24" y1="12.7244" x2="109.5" y2="1.01986" stroke="#9E77ED" stroke-width="2"/>
<line x1="131.864" y1="12.1777" x2="138.092" y2="1.39079" stroke="#9E77ED" stroke-width="2"/>
<line x1="158.656" y1="11.6453" x2="166.662" y2="2.10368" stroke="#9E77ED" stroke-width="2"/>
<line x1="185.65" y1="10.7437" x2="195.192" y2="2.73735" stroke="#9E77ED" stroke-width="2"/>
<line x1="-0.470943" y1="13.4084" x2="-4.73104" y2="1.7039" stroke="#9E77ED" stroke-width="2"/>
<line x1="25.9371" y1="13.6297" x2="23.7742" y2="1.36324" stroke="#9E77ED" stroke-width="2"/>
<line x1="52.3242" y1="13.4561" x2="52.3242" y2="1.00036" stroke="#9E77ED" stroke-width="2"/>
<line x1="78.7418" y1="13.2824" x2="80.9047" y2="1.01594" stroke="#9E77ED" stroke-width="2"/>
<line x1="77.2166" y1="34.5222" x2="81.4767" y2="22.8177" stroke="#9E77ED" stroke-width="2"/>
<line x1="103.837" y1="33.9746" x2="110.065" y2="23.1877" stroke="#9E77ED" stroke-width="2"/>
<line x1="130.628" y1="33.4431" x2="138.635" y2="23.9015" stroke="#9E77ED" stroke-width="2"/>
<line x1="157.627" y1="32.5416" x2="167.168" y2="24.5352" stroke="#9E77ED" stroke-width="2"/>
<line x1="184.859" y1="31.2736" x2="195.646" y2="25.0458" stroke="#9E77ED" stroke-width="2"/>
<line x1="24.2969" y1="35.2529" x2="24.2969" y2="22.7972" stroke="#9E77ED" stroke-width="2"/>
<line x1="50.7183" y1="35.0793" x2="52.8812" y2="22.8128" stroke="#9E77ED" stroke-width="2"/>
<line x1="49.1892" y1="56.3201" x2="53.4493" y2="44.6156" stroke="#9E77ED" stroke-width="2"/>
<line x1="75.8137" y1="55.7725" x2="82.0415" y2="44.9855" stroke="#9E77ED" stroke-width="2"/>
<line x1="102.605" y1="55.24" x2="110.611" y2="45.6984" stroke="#9E77ED" stroke-width="2"/>
<line x1="129.603" y1="54.3384" x2="139.145" y2="46.3321" stroke="#9E77ED" stroke-width="2"/>
<line x1="156.836" y1="53.0705" x2="167.623" y2="46.8427" stroke="#9E77ED" stroke-width="2"/>
<line x1="184.33" y1="52.2185" x2="196.034" y2="47.9584" stroke="#9E77ED" stroke-width="2"/>
<line x1="22.691" y1="56.8771" x2="24.8539" y2="44.6107" stroke="#9E77ED" stroke-width="2"/>
<line x1="21.1658" y1="78.117" x2="25.4259" y2="66.4124" stroke="#9E77ED" stroke-width="2"/>
<line x1="47.7863" y1="77.5703" x2="54.0142" y2="66.7834" stroke="#9E77ED" stroke-width="2"/>
<line x1="74.5777" y1="77.0379" x2="82.5841" y2="67.4963" stroke="#9E77ED" stroke-width="2"/>
<line x1="101.576" y1="76.1363" x2="111.118" y2="68.1299" stroke="#9E77ED" stroke-width="2"/>
<line x1="128.812" y1="74.8683" x2="139.599" y2="68.6405" stroke="#9E77ED" stroke-width="2"/>
<line x1="156.306" y1="74.0164" x2="168.011" y2="69.7563" stroke="#9E77ED" stroke-width="2"/>
<line x1="184.08" y1="72.8033" x2="196.347" y2="70.6404" stroke="#9E77ED" stroke-width="2"/>
<line x1="19.7629" y1="99.3672" x2="25.9907" y2="88.5802" stroke="#9E77ED" stroke-width="2"/>
<line x1="46.5543" y1="98.8357" x2="54.5606" y2="89.2941" stroke="#9E77ED" stroke-width="2"/>
<line x1="73.5525" y1="97.9332" x2="83.0941" y2="89.9268" stroke="#9E77ED" stroke-width="2"/>
<line x1="100.785" y1="96.6662" x2="111.572" y2="90.4384" stroke="#9E77ED" stroke-width="2"/>
<line x1="128.279" y1="95.8132" x2="139.984" y2="91.5531" stroke="#9E77ED" stroke-width="2"/>
<line x1="156.053" y1="94.6011" x2="168.319" y2="92.4382" stroke="#9E77ED" stroke-width="2"/>
<line x1="199.68" y1="95.418" x2="187.224" y2="95.418" stroke="#9E77ED" stroke-width="2"/>
<line x1="18.5269" y1="120.633" x2="26.5333" y2="111.091" stroke="#9E77ED" stroke-width="2"/>
<line x1="45.5252" y1="119.731" x2="55.0668" y2="111.725" stroke="#9E77ED" stroke-width="2"/>
<line x1="72.7617" y1="118.463" x2="83.5487" y2="112.235" stroke="#9E77ED" stroke-width="2"/>
<line x1="100.256" y1="117.611" x2="111.96" y2="113.351" stroke="#9E77ED" stroke-width="2"/>
<line x1="128.029" y1="116.398" x2="140.296" y2="114.235" stroke="#9E77ED" stroke-width="2"/>
<line x1="171.652" y1="117.216" x2="159.197" y2="117.216" stroke="#9E77ED" stroke-width="2"/>
<line x1="199.365" y1="118.368" x2="187.099" y2="116.205" stroke="#9E77ED" stroke-width="2"/>
<line x1="17.5017" y1="141.529" x2="27.0434" y2="133.523" stroke="#9E77ED" stroke-width="2"/>
<line x1="44.7344" y1="140.261" x2="55.5213" y2="134.033" stroke="#9E77ED" stroke-width="2"/>
<line x1="72.2283" y1="139.409" x2="83.9328" y2="135.149" stroke="#9E77ED" stroke-width="2"/>
<line x1="100.002" y1="138.196" x2="112.269" y2="136.033" stroke="#9E77ED" stroke-width="2"/>
<line x1="143.629" y1="139.013" x2="131.173" y2="139.013" stroke="#9E77ED" stroke-width="2"/>
<line x1="171.338" y1="140.165" x2="159.072" y2="138.003" stroke="#9E77ED" stroke-width="2"/>
<line x1="198.775" y1="141.288" x2="187.071" y2="137.028" stroke="#9E77ED" stroke-width="2"/>
<line x1="16.7109" y1="162.058" x2="27.4979" y2="155.83" stroke="#9E77ED" stroke-width="2"/>
<line x1="44.2049" y1="161.206" x2="55.9094" y2="156.946" stroke="#9E77ED" stroke-width="2"/>
<line x1="71.9787" y1="159.994" x2="84.2452" y2="157.831" stroke="#9E77ED" stroke-width="2"/>
<line x1="197.93" y1="163.79" x2="187.143" y2="157.562" stroke="#9E77ED" stroke-width="2"/>
<line x1="115.605" y1="160.811" x2="103.15" y2="160.811" stroke="#9E77ED" stroke-width="2"/>
<line x1="143.315" y1="161.963" x2="131.048" y2="159.8" stroke="#9E77ED" stroke-width="2"/>
<line x1="170.748" y1="163.085" x2="159.043" y2="158.825" stroke="#9E77ED" stroke-width="2"/>
<line x1="16.1775" y1="183.004" x2="27.882" y2="178.744" stroke="#9E77ED" stroke-width="2"/>
<line x1="43.9514" y1="181.791" x2="56.2178" y2="179.628" stroke="#9E77ED" stroke-width="2"/>
<line x1="169.902" y1="185.588" x2="159.115" y2="179.36" stroke="#9E77ED" stroke-width="2"/>
<line x1="196.853" y1="186.656" x2="187.312" y2="178.649" stroke="#9E77ED" stroke-width="2"/>
<line x1="87.5781" y1="182.607" x2="75.1224" y2="182.607" stroke="#9E77ED" stroke-width="2"/>
<line x1="115.287" y1="183.76" x2="103.021" y2="181.597" stroke="#9E77ED" stroke-width="2"/>
<line x1="142.724" y1="184.883" x2="131.02" y2="180.623" stroke="#9E77ED" stroke-width="2"/>
<line x1="-11.8459" y1="204.802" x2="-0.141401" y2="200.541" stroke="#9E77ED" stroke-width="2"/>
<line x1="15.9279" y1="203.588" x2="28.1944" y2="201.426" stroke="#9E77ED" stroke-width="2"/>
<line x1="141.879" y1="207.386" x2="131.092" y2="201.158" stroke="#9E77ED" stroke-width="2"/>
<line x1="168.826" y1="208.453" x2="159.284" y2="200.446" stroke="#9E77ED" stroke-width="2"/>
<line x1="195.578" y1="209.109" x2="187.571" y2="199.567" stroke="#9E77ED" stroke-width="2"/>
<line x1="59.5547" y1="204.405" x2="47.099" y2="204.405" stroke="#9E77ED" stroke-width="2"/>
<line x1="87.2639" y1="205.558" x2="74.9974" y2="203.395" stroke="#9E77ED" stroke-width="2"/>
<line x1="114.701" y1="206.681" x2="102.996" y2="202.421" stroke="#9E77ED" stroke-width="2"/>
<line x1="-12.0994" y1="225.385" x2="0.167036" y2="223.222" stroke="#9E77ED" stroke-width="2"/>
<line x1="113.852" y1="229.182" x2="103.065" y2="222.955" stroke="#9E77ED" stroke-width="2"/>
<line x1="140.803" y1="230.25" x2="131.261" y2="222.244" stroke="#9E77ED" stroke-width="2"/>
<line x1="167.55" y1="230.905" x2="159.544" y2="221.364" stroke="#9E77ED" stroke-width="2"/>
<line x1="194.146" y1="231.152" x2="187.918" y2="220.365" stroke="#9E77ED" stroke-width="2"/>
<line x1="31.5273" y1="226.203" x2="19.0716" y2="226.203" stroke="#9E77ED" stroke-width="2"/>
<line x1="59.2365" y1="227.355" x2="46.97" y2="225.192" stroke="#9E77ED" stroke-width="2"/>
<line x1="86.6736" y1="228.478" x2="74.9691" y2="224.218" stroke="#9E77ED" stroke-width="2"/>
<line x1="85.8281" y1="250.98" x2="75.0412" y2="244.752" stroke="#9E77ED" stroke-width="2"/>
<line x1="112.775" y1="252.048" x2="103.234" y2="244.042" stroke="#9E77ED" stroke-width="2"/>
<line x1="139.527" y1="252.703" x2="131.521" y2="243.162" stroke="#9E77ED" stroke-width="2"/>
<line x1="166.118" y1="252.949" x2="159.891" y2="242.162" stroke="#9E77ED" stroke-width="2"/>
<line x1="192.595" y1="253.181" x2="188.335" y2="241.476" stroke="#9E77ED" stroke-width="2"/>
<line x1="3.50391" y1="248" x2="-8.95179" y2="248" stroke="#9E77ED" stroke-width="2"/>
<line x1="31.2131" y1="249.153" x2="18.9466" y2="246.99" stroke="#9E77ED" stroke-width="2"/>
<line x1="58.6502" y1="250.276" x2="46.9456" y2="246.016" stroke="#9E77ED" stroke-width="2"/>
<line x1="57.8008" y1="272.778" x2="47.0138" y2="266.55" stroke="#9E77ED" stroke-width="2"/>
<line x1="84.7517" y1="273.845" x2="75.2101" y2="265.839" stroke="#9E77ED" stroke-width="2"/>
<line x1="111.503" y1="274.5" x2="103.497" y2="264.959" stroke="#9E77ED" stroke-width="2"/>
<line x1="138.095" y1="274.747" x2="131.867" y2="263.96" stroke="#9E77ED" stroke-width="2"/>
<line x1="164.568" y1="274.979" x2="160.308" y2="263.274" stroke="#9E77ED" stroke-width="2"/>
<line x1="190.976" y1="275.199" x2="188.813" y2="262.933" stroke="#9E77ED" stroke-width="2"/>
<line x1="3.18573" y1="270.951" x2="-9.08074" y2="268.788" stroke="#9E77ED" stroke-width="2"/>
<line x1="30.6228" y1="272.073" x2="18.9183" y2="267.812" stroke="#9E77ED" stroke-width="2"/>
<line x1="29.7773" y1="294.575" x2="18.9904" y2="288.347" stroke="#9E77ED" stroke-width="2"/>
<line x1="56.7244" y1="295.643" x2="47.1828" y2="287.637" stroke="#9E77ED" stroke-width="2"/>
<line x1="83.4761" y1="296.298" x2="75.4698" y2="286.756" stroke="#9E77ED" stroke-width="2"/>
<line x1="110.068" y1="296.545" x2="103.84" y2="285.758" stroke="#9E77ED" stroke-width="2"/>
<line x1="136.545" y1="296.776" x2="132.285" y2="285.071" stroke="#9E77ED" stroke-width="2"/>
<line x1="162.953" y1="296.997" x2="160.79" y2="284.73" stroke="#9E77ED" stroke-width="2"/>
<line x1="189.34" y1="296.823" x2="189.34" y2="284.368" stroke="#9E77ED" stroke-width="2"/>
<line x1="2.59939" y1="293.87" x2="-9.10514" y2="289.61" stroke="#9E77ED" stroke-width="2"/>
<line x1="1.75" y1="316.373" x2="-9.03695" y2="310.145" stroke="#9E77ED" stroke-width="2"/>
<line x1="28.701" y1="317.44" x2="19.1593" y2="309.434" stroke="#9E77ED" stroke-width="2"/>
<line x1="55.4527" y1="318.096" x2="47.4463" y2="308.554" stroke="#9E77ED" stroke-width="2"/>
<line x1="82.0441" y1="318.342" x2="75.8163" y2="307.555" stroke="#9E77ED" stroke-width="2"/>
<line x1="108.517" y1="318.573" x2="104.257" y2="306.869" stroke="#9E77ED" stroke-width="2"/>
<line x1="134.925" y1="318.794" x2="132.762" y2="306.527" stroke="#9E77ED" stroke-width="2"/>
<line x1="161.312" y1="318.62" x2="161.312" y2="306.164" stroke="#9E77ED" stroke-width="2"/>
<line x1="187.734" y1="318.446" x2="189.897" y2="306.18" stroke="#9E77ED" stroke-width="2"/>
<line x1="186.205" y1="339.686" x2="190.465" y2="327.982" stroke="#9E77ED" stroke-width="2"/>
<line x1="0.673619" y1="339.238" x2="-8.868" y2="331.231" stroke="#9E77ED" stroke-width="2"/>
<line x1="27.4254" y1="339.893" x2="19.419" y2="330.351" stroke="#9E77ED" stroke-width="2"/>
<line x1="54.0168" y1="340.14" x2="47.7889" y2="329.353" stroke="#9E77ED" stroke-width="2"/>
<line x1="80.4939" y1="340.37" x2="76.2338" y2="328.666" stroke="#9E77ED" stroke-width="2"/>
<line x1="106.902" y1="340.592" x2="104.739" y2="328.325" stroke="#9E77ED" stroke-width="2"/>
<line x1="133.289" y1="340.418" x2="133.289" y2="327.962" stroke="#9E77ED" stroke-width="2"/>
<line x1="159.707" y1="340.244" x2="161.87" y2="327.978" stroke="#9E77ED" stroke-width="2"/>
<line x1="158.181" y1="361.484" x2="162.441" y2="349.78" stroke="#9E77ED" stroke-width="2"/>
<line x1="184.802" y1="360.937" x2="191.03" y2="350.15" stroke="#9E77ED" stroke-width="2"/>
<line x1="-0.598076" y1="361.691" x2="-8.60444" y2="352.149" stroke="#9E77ED" stroke-width="2"/>
<line x1="25.9933" y1="361.937" x2="19.7655" y2="351.15" stroke="#9E77ED" stroke-width="2"/>
<line x1="52.4666" y1="362.168" x2="48.2065" y2="350.464" stroke="#9E77ED" stroke-width="2"/>
<line x1="78.8746" y1="362.389" x2="76.7117" y2="350.123" stroke="#9E77ED" stroke-width="2"/>
<line x1="105.262" y1="362.216" x2="105.262" y2="349.76" stroke="#9E77ED" stroke-width="2"/>
<line x1="131.683" y1="362.042" x2="133.846" y2="349.776" stroke="#9E77ED" stroke-width="2"/>
<line x1="130.154" y1="383.282" x2="134.414" y2="371.577" stroke="#9E77ED" stroke-width="2"/>
<line x1="156.779" y1="382.734" x2="163.006" y2="371.947" stroke="#9E77ED" stroke-width="2"/>
<line x1="183.57" y1="382.202" x2="191.576" y2="372.66" stroke="#9E77ED" stroke-width="2"/>
<line x1="24.4431" y1="383.966" x2="20.183" y2="372.262" stroke="#9E77ED" stroke-width="2"/>
<line x1="50.8511" y1="384.186" x2="48.6882" y2="371.92" stroke="#9E77ED" stroke-width="2"/>
<line x1="77.2383" y1="384.013" x2="77.2383" y2="371.557" stroke="#9E77ED" stroke-width="2"/>
<line x1="103.656" y1="383.839" x2="105.819" y2="371.573" stroke="#9E77ED" stroke-width="2"/>
<line x1="102.131" y1="405.079" x2="106.391" y2="393.374" stroke="#9E77ED" stroke-width="2"/>
<line x1="128.751" y1="404.532" x2="134.979" y2="393.745" stroke="#9E77ED" stroke-width="2"/>
<line x1="155.543" y1="404" x2="163.549" y2="394.458" stroke="#9E77ED" stroke-width="2"/>
<line x1="182.541" y1="403.098" x2="192.082" y2="395.092" stroke="#9E77ED" stroke-width="2"/>
<line x1="22.8238" y1="405.984" x2="20.6609" y2="393.718" stroke="#9E77ED" stroke-width="2"/>
<line x1="49.2109" y1="405.811" x2="49.2109" y2="393.355" stroke="#9E77ED" stroke-width="2"/>
<line x1="75.6324" y1="405.637" x2="77.7953" y2="393.37" stroke="#9E77ED" stroke-width="2"/>
</g>
</svg>
