<svg width="64" height="64" viewBox="0 0 64 64" fill="none" xmlns="http://www.w3.org/2000/svg">
<g filter="url(#filter0_d_1109_2412)">
<path d="M4 23.9111C4 16.9416 4 13.4568 5.35636 10.7948C6.54945 8.45321 8.45321 6.54945 10.7948 5.35636C13.4568 4 16.9416 4 23.9111 4H40.0889C47.0584 4 50.5432 4 53.2052 5.35636C55.5468 6.54945 57.4505 8.45321 58.6436 10.7948C60 13.4568 60 16.9416 60 23.9111V40.0889C60 47.0584 60 50.5432 58.6436 53.2052C57.4505 55.5468 55.5468 57.4505 53.2052 58.6436C50.5432 60 47.0584 60 40.0889 60H23.9111C16.9416 60 13.4568 60 10.7948 58.6436C8.45321 57.4505 6.54945 55.5468 5.35636 53.2052C4 50.5432 4 47.0584 4 40.0889V23.9111Z" fill="white"/>
<path d="M32.0041 24.9019L25.0823 12.6864C25.3121 12.4524 25.5765 12.299 25.8409 12.1958C23.7997 12.8676 22.8632 15.1597 22.8632 15.1597L10.2182 37.4696C10.0402 38.169 9.9908 38.8005 10.013 39.3566H23.8146L32.0041 24.9019Z" fill="#34A853"/>
<path d="M32.0039 24.9019L40.1934 39.3566H53.9949C54.0172 38.8005 53.9677 38.169 53.7898 37.4696L41.1448 15.1597C41.1448 15.1597 40.2057 12.8676 38.167 12.1958C38.429 12.299 38.6959 12.4524 38.9257 12.6864L32.0039 24.9019Z" fill="#FBBC05"/>
<path d="M32.0039 24.9024L38.9257 12.6869C38.6959 12.4529 38.429 12.2995 38.167 12.1963C37.8656 12.0982 37.5418 12.0327 37.1909 12.0151H36.8252H27.1827H26.8169C26.4685 12.0302 26.1423 12.0957 25.8408 12.1963C25.5789 12.2995 25.312 12.4529 25.0822 12.6869L32.0039 24.9024Z" fill="#188038"/>
<path d="M23.8169 39.3567L16.9742 51.4337C16.9742 51.4337 16.7469 51.323 16.438 51.0941C17.4092 51.8413 18.3532 51.9999 18.3532 51.9999H45.2272C46.7099 51.9999 47.0188 51.4337 47.0188 51.4337C47.0238 51.4312 47.0262 51.4287 47.0312 51.4262L40.1934 39.3567H23.8169Z" fill="#4285F4"/>
<path d="M23.8174 39.3567H10.0159C10.0851 40.9972 10.7968 41.9558 10.7968 41.9558L11.3157 42.8565C11.3528 42.9094 11.375 42.9396 11.375 42.9396L12.5043 44.9222L15.0398 49.3354C15.1139 49.514 15.2004 49.6775 15.2918 49.8335C15.3264 49.8864 15.3586 49.9442 15.3956 49.9946C15.4055 50.0097 15.4154 50.0248 15.4253 50.0399C15.7391 50.4827 16.09 50.8249 16.4409 51.0941C16.7498 51.3256 16.9772 51.4337 16.9772 51.4337L23.8174 39.3567Z" fill="#1967D2"/>
<path d="M40.1934 39.3567H53.9949C53.9257 40.9972 53.214 41.9558 53.214 41.9558L52.695 42.8565C52.658 42.9094 52.6357 42.9396 52.6357 42.9396L51.5064 44.9222L48.971 49.3354C48.8968 49.514 48.8104 49.6775 48.7189 49.8335C48.6843 49.8864 48.6522 49.9442 48.6151 49.9946C48.6052 50.0097 48.5954 50.0248 48.5855 50.0399C48.2716 50.4827 47.9207 50.8249 47.5698 51.0941C47.2609 51.3256 47.0336 51.4337 47.0336 51.4337L40.1934 39.3567Z" fill="#EA4335"/>
</g>
<defs>
<filter id="filter0_d_1109_2412" x="-2" y="-1" width="68" height="68" filterUnits="userSpaceOnUse" color-interpolation-filters="sRGB">
<feFlood flood-opacity="0" result="BackgroundImageFix"/>
<feColorMatrix in="SourceAlpha" type="matrix" values="0 0 0 0 0 0 0 0 0 0 0 0 0 0 0 0 0 0 127 0" result="hardAlpha"/>
<feOffset dy="1"/>
<feGaussianBlur stdDeviation="1"/>
<feColorMatrix type="matrix" values="0 0 0 0 0.0627451 0 0 0 0 0.0941176 0 0 0 0 0.156863 0 0 0 0.05 0"/>
<feBlend mode="normal" in2="BackgroundImageFix" result="effect1_dropShadow_1109_2412"/>
<feBlend mode="normal" in="SourceGraphic" in2="effect1_dropShadow_1109_2412" result="shape"/>
</filter>
</defs>
</svg>
