<svg width="64" height="64" viewBox="0 0 64 64" fill="none" xmlns="http://www.w3.org/2000/svg">
<path d="M59.3295 30.4329L34.415 6.3358L32 4L13.2454 22.1394L4.67052 30.4329C3.77649 31.2987 3.77649 32.7013 4.67052 33.5671L21.8049 50.1394L32 60L50.7546 41.8606L51.045 41.5797L59.3295 33.5671C60.2235 32.7013 60.2235 31.2987 59.3295 30.4329ZM32 40.2788L23.4404 32L32 23.7212L40.5596 32L32 40.2788Z" fill="#2684FF"/>
<path fill-rule="evenodd" clip-rule="evenodd" d="M32.0001 23.7212C26.396 18.3003 26.3686 9.52001 31.939 4.06653L13.2073 22.1763L23.4023 32.037L32.0001 23.7212Z" fill="url(#paint0_linear_1109_2457)"/>
<path fill-rule="evenodd" clip-rule="evenodd" d="M40.5825 31.9778L32 40.2787C34.7049 42.8934 36.2247 46.4406 36.2247 50.1393C36.2247 53.8381 34.7049 57.3853 32 60L50.7776 41.8384L40.5825 31.9778Z" fill="url(#paint1_linear_1109_2457)"/>
<defs>
<linearGradient id="paint0_linear_1109_2457" x1="30.4716" y1="15.3464" x2="16.1932" y2="21.5806" gradientUnits="userSpaceOnUse">
<stop offset="0.18" stop-color="#0052CC"/>
<stop offset="1" stop-color="#2684FF"/>
</linearGradient>
<linearGradient id="paint1_linear_1109_2457" x1="33.6355" y1="48.5575" x2="47.8883" y2="42.3675" gradientUnits="userSpaceOnUse">
<stop offset="0.18" stop-color="#0052CC"/>
<stop offset="1" stop-color="#2684FF"/>
</linearGradient>
</defs>
</svg>
