<svg width="64" height="64" viewBox="0 0 64 64" fill="none" xmlns="http://www.w3.org/2000/svg">
<path d="M53.0004 29.9995C55.7616 29.9995 58 27.7611 58 24.9999C58 22.2388 55.7614 20.0004 53.0002 20.0004C50.2388 20.0004 48 22.2389 48 25.0004V29.9995H53.0004ZM39 29.9995C41.7614 29.9995 44 27.7609 44 24.9995V11.0004C44 8.23894 41.7614 6.00037 39 6.00037C36.2386 6.00037 34 8.23894 34 11.0004V24.9995C34 27.7609 36.2386 29.9995 39 29.9995Z" fill="#2EB67D"/>
<path d="M10.9996 34.0004C8.23839 34.0004 6 36.2388 6 38.9999C6 41.7611 8.2386 43.9995 10.9998 43.9995C13.7612 43.9995 16 41.7609 16 38.9995V34.0004H10.9996ZM25 34.0004C22.2386 34.0004 20 36.2389 20 39.0004V52.9995C20 55.7609 22.2386 57.9995 25 57.9995C27.7614 57.9995 30 55.7609 30 52.9995V39.0004C30 36.2389 27.7614 34.0004 25 34.0004Z" fill="#E01E5A"/>
<path d="M34.0004 53.0004C34.0004 55.7616 36.2388 58 38.9999 58C41.7611 58 43.9995 55.7614 43.9995 53.0002C43.9995 50.2388 41.7609 48 38.9995 48L34.0004 48L34.0004 53.0004ZM34.0004 39C34.0004 41.7614 36.2389 44 39.0004 44L52.9995 44C55.7609 44 57.9995 41.7614 57.9995 39C57.9995 36.2386 55.7609 34 52.9995 34L39.0004 34C36.2389 34 34.0004 36.2386 34.0004 39Z" fill="#ECB22E"/>
<path d="M29.9995 10.9996C29.9995 8.23839 27.7611 6 24.9999 6C22.2388 6 20.0004 8.2386 20.0004 10.9998C20.0004 13.7612 22.2389 16 25.0004 16L29.9995 16L29.9995 10.9996ZM29.9995 25C29.9995 22.2386 27.7609 20 24.9995 20L11.0004 20C8.23894 20 6.00037 22.2386 6.00037 25C6.00037 27.7614 8.23894 30 11.0004 30L24.9995 30C27.7609 30 29.9995 27.7614 29.9995 25Z" fill="#36C5F0"/>
</svg>
